<svg width="29" height="28" viewBox="0 0 29 28" fill="none" xmlns="http://www.w3.org/2000/svg">
<path d="M28.058 22.2645L24.9632 20.1949L22.212 18.3557C21.6811 18.0013 20.9675 18.1175 20.5755 18.6221L18.8732 20.8172C18.5075 21.2935 17.8497 21.4304 17.3252 21.1392C16.1701 20.4947 14.8041 19.8879 11.7902 16.8611C8.77625 13.8342 8.16739 12.468 7.52483 11.3094C7.23449 10.7834 7.37096 10.1236 7.84586 9.75691L10.0344 8.04942C10.5375 7.65633 10.6533 6.94064 10.3001 6.40805L8.52261 3.73358L6.4029 0.544464C6.04212 0.00164174 5.3199 -0.161325 4.76213 0.174179L2.31752 1.64515C1.65686 2.03556 1.17122 2.66599 0.961195 3.40574C0.292684 5.8504 0.157902 11.2432 8.77478 19.886C17.3917 28.5287 22.7679 28.393 25.2052 27.7225C25.9428 27.5119 26.5713 27.0248 26.9606 26.3621L28.4271 23.9102C28.7617 23.3507 28.5992 22.6264 28.058 22.2645Z" fill="#55A630"/>
<path d="M16.5662 4.34489C21.0831 4.34992 24.7435 8.02127 24.7485 12.5517C24.7485 12.8183 24.964 13.0345 25.2298 13.0345C25.4957 13.0345 25.7112 12.8183 25.7112 12.5517C25.7056 7.48829 21.6146 3.38497 16.5663 3.37939C16.3005 3.37939 16.085 3.59552 16.085 3.86217C16.0849 4.12871 16.3004 4.34489 16.5662 4.34489Z" fill="#55A630"/>
<path d="M16.5673 7.24094C19.4899 7.24439 21.8582 9.61988 21.8616 12.5512C21.8616 12.8178 22.0771 13.034 22.343 13.034C22.6087 13.034 22.8243 12.8179 22.8243 12.5512C22.8203 9.08684 20.0213 6.27938 16.5673 6.27539C16.3015 6.27539 16.0859 6.49151 16.0859 6.75817C16.0859 7.02482 16.3014 7.24094 16.5673 7.24094Z" fill="#55A630"/>
<path d="M16.5662 10.1381C17.8947 10.1397 18.9712 11.2194 18.9728 12.5519C18.9728 12.8185 19.1883 13.0346 19.4541 13.0346C19.72 13.0346 19.9355 12.8185 19.9355 12.5519C19.9334 10.6864 18.4262 9.17474 16.5663 9.17261C16.3005 9.17261 16.085 9.38873 16.085 9.65538C16.0849 9.92198 16.3004 10.1381 16.5662 10.1381Z" fill="#55A630"/>
</svg>
