<svg width="62" height="63" viewBox="0 0 62 63" fill="none" xmlns="http://www.w3.org/2000/svg">
<path d="M61.2066 31.4275C61.2066 25.2117 59.4117 19.1355 56.049 13.9673C52.6862 8.79909 47.9067 4.77096 42.3146 2.39229C36.7226 0.013617 30.5693 -0.608752 24.6329 0.603884C18.6964 1.81652 13.2434 4.8097 8.9635 9.2049C4.68356 13.6001 1.76888 19.2 0.588047 25.2963C-0.592787 31.3926 0.0132599 37.7116 2.32955 43.4542C4.64584 49.1969 8.56834 54.1052 13.601 57.5585C18.6337 61.0117 24.5505 62.8549 30.6033 62.8549C34.6223 62.8553 38.602 62.0427 42.3151 60.4635C46.0282 58.8842 49.4021 56.5693 52.2439 53.6509C55.0858 50.7326 57.34 47.2679 58.8778 43.4547C60.4156 39.6416 61.2069 35.5547 61.2066 31.4275Z" fill="#B7ECB1"/>
</svg>
